<svg xmlns="http://www.w3.org/2000/svg" width="25" height="24" viewBox="0 0 25 24" fill="none">
  <g clip-path="url(#clip0_817_5982)">
    <path d="M4.5 18H20.5C21.05 18 21.5 17.55 21.5 17C21.5 16.45 21.05 16 20.5 16H4.5C3.95 16 3.5 16.45 3.5 17C3.5 17.55 3.95 18 4.5 18ZM4.5 13H20.5C21.05 13 21.5 12.55 21.5 12C21.5 11.45 21.05 11 20.5 11H4.5C3.95 11 3.5 11.45 3.5 12C3.5 12.55 3.95 13 4.5 13ZM3.5 7C3.5 7.55 3.95 8 4.5 8H20.5C21.05 8 21.5 7.55 21.5 7C21.5 6.45 21.05 6 20.5 6H4.5C3.95 6 3.5 6.45 3.5 7Z" fill="#292929"/>
  </g>
  <defs>
    <clipPath id="clip0_817_5982">
      <rect width="24" height="24" fill="white" transform="translate(0.5)"/>
    </clipPath>
  </defs>
</svg>