<svg xmlns="http://www.w3.org/2000/svg" width="18" height="19" viewBox="0 0 18 19" fill="none">
  <g clip-path="url(#clip0_897_5081)">
    <path d="M14.0625 15.6875C14.0625 15.91 13.9965 16.1275 13.8729 16.3125C13.7493 16.4975 13.5736 16.6417 13.368 16.7269C13.1625 16.812 12.9363 16.8343 12.718 16.7909C12.4998 16.7475 12.2993 16.6403 12.142 16.483C11.9847 16.3257 11.8775 16.1252 11.8341 15.907C11.7907 15.6887 11.813 15.4625 11.8981 15.257C11.9833 15.0514 12.1275 14.8757 12.3125 14.7521C12.4975 14.6285 12.715 14.5625 12.9375 14.5625C13.2359 14.5625 13.522 14.681 13.733 14.892C13.944 15.103 14.0625 15.3891 14.0625 15.6875ZM5.625 14.5625C5.4025 14.5625 5.18499 14.6285 4.99998 14.7521C4.81498 14.8757 4.67078 15.0514 4.58564 15.257C4.50049 15.4625 4.47821 15.6887 4.52162 15.907C4.56502 16.1252 4.67217 16.3257 4.8295 16.483C4.98684 16.6403 5.18729 16.7475 5.40552 16.7909C5.62375 16.8343 5.84995 16.812 6.05552 16.7269C6.26109 16.6417 6.43679 16.4975 6.5604 16.3125C6.68402 16.1275 6.75 15.91 6.75 15.6875C6.75 15.3891 6.63147 15.103 6.4205 14.892C6.20952 14.681 5.92337 14.5625 5.625 14.5625ZM16.0383 5.225C15.9855 5.15554 15.9175 5.09913 15.8395 5.06012C15.7615 5.02111 15.6755 5.00054 15.5883 5H3.39609L2.82656 3.00312C2.75827 2.76853 2.61591 2.56232 2.42074 2.41531C2.22558 2.2683 1.98809 2.18839 1.74375 2.1875H0.5625C0.413316 2.1875 0.270242 2.24676 0.164752 2.35225C0.0592632 2.45774 0 2.60082 0 2.75C0 2.89918 0.0592632 3.04226 0.164752 3.14775C0.270242 3.25324 0.413316 3.3125 0.5625 3.3125H1.74375L2.43281 5.71016V5.72422L4.28906 12.2141C4.39099 12.5663 4.6044 12.8759 4.89727 13.0965C5.19013 13.3171 5.54663 13.4367 5.91328 13.4375H12.6492C13.0159 13.4367 13.3724 13.3171 13.6652 13.0965C13.9581 12.8759 14.1715 12.5663 14.2734 12.2141L16.1297 5.71719C16.1535 5.63366 16.1576 5.54576 16.1418 5.46037C16.1259 5.37497 16.0905 5.29441 16.0383 5.225Z" fill="#5982E7"/>
  </g>
  <defs>
    <clipPath id="clip0_897_5081">
      <rect width="18" height="18" fill="white" transform="translate(0 0.5)"/>
    </clipPath>
  </defs>
</svg>