<svg xmlns="http://www.w3.org/2000/svg" width="20" height="20" viewBox="0 0 20 20" fill="none">
  <path d="M11.175 10.0002L16.425 4.75849C16.5819 4.60157 16.6701 4.38874 16.6701 4.16682C16.6701 3.9449 16.5819 3.73207 16.425 3.57515C16.2681 3.41823 16.0552 3.33008 15.8333 3.33008C15.6114 3.33008 15.3986 3.41823 15.2417 3.57515L9.99999 8.82515L4.75832 3.57515C4.6014 3.41823 4.38857 3.33008 4.16666 3.33008C3.94474 3.33008 3.73191 3.41823 3.57499 3.57515C3.41807 3.73207 3.32991 3.9449 3.32991 4.16682C3.32991 4.38874 3.41807 4.60157 3.57499 4.75849L8.82499 10.0002L3.57499 15.2418C3.49688 15.3193 3.43489 15.4115 3.39258 15.513C3.35027 15.6146 3.32849 15.7235 3.32849 15.8335C3.32849 15.9435 3.35027 16.0524 3.39258 16.154C3.43489 16.2555 3.49688 16.3477 3.57499 16.4252C3.65246 16.5033 3.74463 16.5653 3.84618 16.6076C3.94773 16.6499 4.05665 16.6717 4.16666 16.6717C4.27667 16.6717 4.38559 16.6499 4.48714 16.6076C4.58869 16.5653 4.68085 16.5033 4.75832 16.4252L9.99999 11.1752L15.2417 16.4252C15.3191 16.5033 15.4113 16.5653 15.5128 16.6076C15.6144 16.6499 15.7233 16.6717 15.8333 16.6717C15.9433 16.6717 16.0523 16.6499 16.1538 16.6076C16.2554 16.5653 16.3475 16.5033 16.425 16.4252C16.5031 16.3477 16.5651 16.2555 16.6074 16.154C16.6497 16.0524 16.6715 15.9435 16.6715 15.8335C16.6715 15.7235 16.6497 15.6146 16.6074 15.513C16.5651 15.4115 16.5031 15.3193 16.425 15.2418L11.175 10.0002Z" fill="#292929"/>
</svg>