<svg xmlns="http://www.w3.org/2000/svg" width="18" height="19" viewBox="0 0 18 19" fill="none">
  <path d="M9 9.5C9.4125 9.5 9.76575 9.353 10.0598 9.059C10.3533 8.7655 10.5 8.4125 10.5 8C10.5 7.5875 10.3533 7.23425 10.0598 6.94025C9.76575 6.64675 9.4125 6.5 9 6.5C8.5875 6.5 8.2345 6.64675 7.941 6.94025C7.647 7.23425 7.5 7.5875 7.5 8C7.5 8.4125 7.647 8.7655 7.941 9.059C8.2345 9.353 8.5875 9.5 9 9.5ZM9 17C6.9875 15.2875 5.4845 13.6967 4.491 12.2277C3.497 10.7592 3 9.4 3 8.15C3 6.275 3.60325 4.78125 4.80975 3.66875C6.01575 2.55625 7.4125 2 9 2C10.5875 2 11.9843 2.55625 13.1903 3.66875C14.3967 4.78125 15 6.275 15 8.15C15 9.4 14.5033 10.7592 13.5098 12.2277C12.5157 13.6967 11.0125 15.2875 9 17Z" fill="#5982E7"/>
</svg>