<svg xmlns="http://www.w3.org/2000/svg" width="18" height="19" viewBox="0 0 18 19" fill="none">
  <path d="M9 18.5C4.02944 18.5 -6.10673e-07 14.4706 -3.93402e-07 9.5C-1.76132e-07 4.52944 4.02944 0.499999 9 0.5C13.9706 0.5 18 4.52944 18 9.5C18 14.4706 13.9706 18.5 9 18.5Z" fill="#0052B5"/>
  <path d="M17.4321 6.35C16.1553 2.933 12.8611 0.5 8.99877 0.5C5.1364 0.499999 1.84228 2.933 0.56542 6.35L17.4321 6.35Z" fill="white"/>
  <path d="M0.567872 12.65C1.84473 16.067 5.13885 18.5 9.00123 18.5C12.8636 18.5 16.1577 16.067 17.4346 12.65L0.567872 12.65Z" fill="#D90026"/>
</svg>