<svg width="64" height="19" viewBox="0 0 64 19" fill="none" xmlns="http://www.w3.org/2000/svg">
<path d="M0.368 18V1.2H6.032V13.608H13.616V18H0.368ZM20.7781 18.384C19.4021 18.384 18.1301 18.168 16.9621 17.736C15.8101 17.304 14.8101 16.696 13.9621 15.912C13.1141 15.112 12.4501 14.176 11.9701 13.104C11.5061 12.032 11.2741 10.864 11.2741 9.6C11.2741 8.32 11.5061 7.152 11.9701 6.096C12.4501 5.024 13.1141 4.096 13.9621 3.312C14.8101 2.512 15.8101 1.896 16.9621 1.464C18.1301 1.032 19.3941 0.816 20.7541 0.816C22.1301 0.816 23.3941 1.032 24.5461 1.464C25.6981 1.896 26.6981 2.512 27.5461 3.312C28.3941 4.096 29.0501 5.024 29.5141 6.096C29.9941 7.152 30.2341 8.32 30.2341 9.6C30.2341 10.864 29.9941 12.032 29.5141 13.104C29.0501 14.176 28.3941 15.112 27.5461 15.912C26.6981 16.696 25.6981 17.304 24.5461 17.736C23.3941 18.168 22.1381 18.384 20.7781 18.384ZM20.7541 13.8C21.2821 13.8 21.7701 13.704 22.2181 13.512C22.6821 13.32 23.0821 13.048 23.4181 12.696C23.7701 12.328 24.0421 11.888 24.2341 11.376C24.4261 10.848 24.5221 10.256 24.5221 9.6C24.5221 8.944 24.4261 8.36 24.2341 7.848C24.0421 7.32 23.7701 6.88 23.4181 6.528C23.0821 6.16 22.6821 5.88 22.2181 5.688C21.7701 5.496 21.2821 5.4 20.7541 5.4C20.2261 5.4 19.7301 5.496 19.2661 5.688C18.8181 5.88 18.4181 6.16 18.0661 6.528C17.7301 6.88 17.4661 7.32 17.2741 7.848C17.0821 8.36 16.9861 8.944 16.9861 9.6C16.9861 10.256 17.0821 10.848 17.2741 11.376C17.4661 11.888 17.7301 12.328 18.0661 12.696C18.4181 13.048 18.8181 13.32 19.2661 13.512C19.7301 13.704 20.2261 13.8 20.7541 13.8ZM38.0019 18.384C36.6419 18.384 35.3859 18.176 34.2339 17.76C33.0979 17.328 32.1059 16.72 31.2579 15.936C30.4259 15.152 29.7779 14.224 29.3139 13.152C28.8499 12.08 28.6179 10.896 28.6179 9.6C28.6179 8.304 28.8499 7.12 29.3139 6.048C29.7779 4.976 30.4339 4.048 31.2819 3.264C32.1299 2.48 33.1299 1.88 34.2819 1.464C35.4499 1.032 36.7299 0.816 38.1219 0.816C39.7859 0.816 41.2659 1.096 42.5619 1.656C43.8739 2.216 44.9539 3.016 45.8019 4.056L42.1779 7.248C41.6499 6.64 41.0739 6.184 40.4499 5.88C39.8419 5.56 39.1619 5.4 38.4099 5.4C37.7859 5.4 37.2179 5.496 36.7059 5.688C36.2099 5.88 35.7859 6.16 35.4339 6.528C35.0819 6.896 34.8099 7.336 34.6179 7.848C34.4259 8.36 34.3299 8.944 34.3299 9.6C34.3299 10.224 34.4259 10.8 34.6179 11.328C34.8099 11.84 35.0819 12.28 35.4339 12.648C35.7859 13.016 36.2019 13.304 36.6819 13.512C37.1779 13.704 37.7299 13.8 38.3379 13.8C38.9779 13.8 39.6019 13.696 40.2099 13.488C40.8179 13.264 41.4659 12.888 42.1539 12.36L45.3219 16.248C44.2979 16.936 43.1299 17.464 41.8179 17.832C40.5059 18.2 39.2339 18.384 38.0019 18.384ZM40.4019 15.528V9.144H45.3219V16.248L40.4019 15.528ZM53.5672 18.384C52.1912 18.384 50.9192 18.168 49.7512 17.736C48.5992 17.304 47.5992 16.696 46.7512 15.912C45.9032 15.112 45.2392 14.176 44.7592 13.104C44.2952 12.032 44.0632 10.864 44.0632 9.6C44.0632 8.32 44.2952 7.152 44.7592 6.096C45.2392 5.024 45.9032 4.096 46.7512 3.312C47.5992 2.512 48.5992 1.896 49.7512 1.464C50.9192 1.032 52.1832 0.816 53.5432 0.816C54.9192 0.816 56.1832 1.032 57.3352 1.464C58.4872 1.896 59.4872 2.512 60.3352 3.312C61.1832 4.096 61.8392 5.024 62.3032 6.096C62.7832 7.152 63.0232 8.32 63.0232 9.6C63.0232 10.864 62.7832 12.032 62.3032 13.104C61.8392 14.176 61.1832 15.112 60.3352 15.912C59.4872 16.696 58.4872 17.304 57.3352 17.736C56.1832 18.168 54.9272 18.384 53.5672 18.384ZM53.5432 13.8C54.0712 13.8 54.5592 13.704 55.0072 13.512C55.4712 13.32 55.8712 13.048 56.2072 12.696C56.5592 12.328 56.8312 11.888 57.0232 11.376C57.2152 10.848 57.3112 10.256 57.3112 9.6C57.3112 8.944 57.2152 8.36 57.0232 7.848C56.8312 7.32 56.5592 6.88 56.2072 6.528C55.8712 6.16 55.4712 5.88 55.0072 5.688C54.5592 5.496 54.0712 5.4 53.5432 5.4C53.0152 5.4 52.5192 5.496 52.0552 5.688C51.6072 5.88 51.2072 6.16 50.8552 6.528C50.5192 6.88 50.2552 7.32 50.0632 7.848C49.8712 8.36 49.7752 8.944 49.7752 9.6C49.7752 10.256 49.8712 10.848 50.0632 11.376C50.2552 11.888 50.5192 12.328 50.8552 12.696C51.2072 13.048 51.6072 13.32 52.0552 13.512C52.5192 13.704 53.0152 13.8 53.5432 13.8Z" fill="#5982E7"/>
</svg>
